<mxfile host="app.diagrams.net" modified="2021-03-23T11:43:30.635Z" agent="5.0 (Windows NT 10.0; Win64; x64) AppleWebKit/537.36 (KHTML, like Gecko) Chrome/89.0.4389.90 Safari/537.36" etag="E6GfyUPYTVJE-3-UIHkw" version="14.5.0" type="github">
  <diagram id="C5RBs43oDa-KdzZeNtuy" name="Page-1">
    <mxGraphModel dx="1422" dy="762" grid="1" gridSize="10" guides="1" tooltips="1" connect="1" arrows="1" fold="1" page="1" pageScale="1" pageWidth="827" pageHeight="1169" math="0" shadow="0">
      <root>
        <mxCell id="WIyWlLk6GJQsqaUBKTNV-0" />
        <mxCell id="WIyWlLk6GJQsqaUBKTNV-1" parent="WIyWlLk6GJQsqaUBKTNV-0" />
        <mxCell id="WIyWlLk6GJQsqaUBKTNV-3" value="点击IOT设备管理模块" style="rounded=1;whiteSpace=wrap;html=1;fontSize=12;glass=0;strokeWidth=1;shadow=0;" parent="WIyWlLk6GJQsqaUBKTNV-1" vertex="1">
          <mxGeometry x="160" y="25" width="120" height="35" as="geometry" />
        </mxCell>
        <mxCell id="k0uKY-lTLWk4_8m04BFy-28" value="" style="edgeStyle=orthogonalEdgeStyle;rounded=0;orthogonalLoop=1;jettySize=auto;html=1;" parent="WIyWlLk6GJQsqaUBKTNV-1" source="WIyWlLk6GJQsqaUBKTNV-6" target="WIyWlLk6GJQsqaUBKTNV-10" edge="1">
          <mxGeometry relative="1" as="geometry" />
        </mxCell>
        <mxCell id="k0uKY-lTLWk4_8m04BFy-56" style="edgeStyle=orthogonalEdgeStyle;rounded=0;orthogonalLoop=1;jettySize=auto;html=1;exitX=0;exitY=0.5;exitDx=0;exitDy=0;" parent="WIyWlLk6GJQsqaUBKTNV-1" source="WIyWlLk6GJQsqaUBKTNV-6" edge="1">
          <mxGeometry relative="1" as="geometry">
            <mxPoint x="180" y="520" as="targetPoint" />
            <Array as="points">
              <mxPoint x="50" y="180" />
              <mxPoint x="50" y="520" />
            </Array>
          </mxGeometry>
        </mxCell>
        <mxCell id="WIyWlLk6GJQsqaUBKTNV-6" value="本地部署？" style="rhombus;whiteSpace=wrap;html=1;shadow=0;fontFamily=Helvetica;fontSize=12;align=center;strokeWidth=1;spacing=6;spacingTop=-4;" parent="WIyWlLk6GJQsqaUBKTNV-1" vertex="1">
          <mxGeometry x="170" y="140" width="100" height="80" as="geometry" />
        </mxCell>
        <mxCell id="WIyWlLk6GJQsqaUBKTNV-9" value="Yes" style="edgeStyle=orthogonalEdgeStyle;rounded=0;html=1;jettySize=auto;orthogonalLoop=1;fontSize=11;endArrow=block;endFill=0;endSize=8;strokeWidth=1;shadow=0;labelBackgroundColor=none;" parent="WIyWlLk6GJQsqaUBKTNV-1" source="WIyWlLk6GJQsqaUBKTNV-10" target="WIyWlLk6GJQsqaUBKTNV-12" edge="1">
          <mxGeometry x="-0.5" y="10" relative="1" as="geometry">
            <mxPoint as="offset" />
          </mxGeometry>
        </mxCell>
        <mxCell id="k0uKY-lTLWk4_8m04BFy-46" value="" style="edgeStyle=orthogonalEdgeStyle;rounded=0;orthogonalLoop=1;jettySize=auto;html=1;" parent="WIyWlLk6GJQsqaUBKTNV-1" source="WIyWlLk6GJQsqaUBKTNV-10" target="k0uKY-lTLWk4_8m04BFy-44" edge="1">
          <mxGeometry relative="1" as="geometry" />
        </mxCell>
        <mxCell id="WIyWlLk6GJQsqaUBKTNV-10" value="第一次点击且之前&lt;br&gt;没有在IOT数据认证&lt;br&gt;中配置成功过hekr账号？" style="rhombus;whiteSpace=wrap;html=1;shadow=0;fontFamily=Helvetica;fontSize=12;align=center;strokeWidth=1;spacing=6;spacingTop=-4;" parent="WIyWlLk6GJQsqaUBKTNV-1" vertex="1">
          <mxGeometry x="130" y="280" width="180" height="160" as="geometry" />
        </mxCell>
        <mxCell id="WIyWlLk6GJQsqaUBKTNV-11" value="自动登陆到hekr后台管理IOT数据。" style="rounded=0;whiteSpace=wrap;html=1;fontSize=12;glass=0;strokeWidth=1;shadow=0;direction=west;" parent="WIyWlLk6GJQsqaUBKTNV-1" vertex="1">
          <mxGeometry x="160" y="610" width="120" height="40" as="geometry" />
        </mxCell>
        <mxCell id="WIyWlLk6GJQsqaUBKTNV-12" value="后台注册hekr账号并自动登陆到hekr后台管理IOT数据。&lt;br&gt;IOT数据认证中自动配置好相应用户名密码。" style="rounded=0;whiteSpace=wrap;html=1;fontSize=12;glass=0;strokeWidth=1;shadow=0;" parent="WIyWlLk6GJQsqaUBKTNV-1" vertex="1">
          <mxGeometry x="350" y="315" width="190" height="90" as="geometry" />
        </mxCell>
        <mxCell id="k0uKY-lTLWk4_8m04BFy-10" value="后台注册hekr账号并自动配置到IOT数据认证中，显示数据中台页面，用户可以点击修改。&lt;br&gt;显示初始认证按钮。&lt;br&gt;显示去管理IOT数据按钮。" style="whiteSpace=wrap;html=1;" parent="WIyWlLk6GJQsqaUBKTNV-1" vertex="1">
          <mxGeometry x="360" y="110" width="200" height="110" as="geometry" />
        </mxCell>
        <mxCell id="k0uKY-lTLWk4_8m04BFy-38" value="" style="edgeStyle=orthogonalEdgeStyle;rounded=0;orthogonalLoop=1;jettySize=auto;html=1;exitX=1;exitY=0.5;exitDx=0;exitDy=0;" parent="WIyWlLk6GJQsqaUBKTNV-1" source="7Q2n8eVBiBNBiA9YKsd2-28" target="k0uKY-lTLWk4_8m04BFy-37" edge="1">
          <mxGeometry relative="1" as="geometry">
            <mxPoint x="1060" y="535" as="sourcePoint" />
          </mxGeometry>
        </mxCell>
        <mxCell id="k0uKY-lTLWk4_8m04BFy-34" value="数据中台表单自动填充认证成功的账号数据，可以点击修改.&lt;br&gt;显示IOT设备管理按钮。&lt;br&gt;显示初始认证按钮。" style="whiteSpace=wrap;html=1;" parent="WIyWlLk6GJQsqaUBKTNV-1" vertex="1">
          <mxGeometry x="780" y="630" width="140" height="110" as="geometry" />
        </mxCell>
        <mxCell id="k0uKY-lTLWk4_8m04BFy-37" value="点击数据中台显示空白表单。&lt;br&gt;显示初始认证按钮。&lt;br&gt;是否显示去注册按钮？" style="whiteSpace=wrap;html=1;fillColor=#f8cecc;strokeColor=#b85450;" parent="WIyWlLk6GJQsqaUBKTNV-1" vertex="1">
          <mxGeometry x="1040" y="462.5" width="220" height="85" as="geometry" />
        </mxCell>
        <mxCell id="k0uKY-lTLWk4_8m04BFy-40" value="yes&lt;br&gt;" style="text;html=1;align=center;verticalAlign=middle;resizable=0;points=[];autosize=1;" parent="WIyWlLk6GJQsqaUBKTNV-1" vertex="1">
          <mxGeometry x="230" y="235" width="30" height="20" as="geometry" />
        </mxCell>
        <mxCell id="k0uKY-lTLWk4_8m04BFy-47" value="" style="edgeStyle=orthogonalEdgeStyle;rounded=0;orthogonalLoop=1;jettySize=auto;html=1;" parent="WIyWlLk6GJQsqaUBKTNV-1" source="k0uKY-lTLWk4_8m04BFy-44" target="WIyWlLk6GJQsqaUBKTNV-11" edge="1">
          <mxGeometry relative="1" as="geometry" />
        </mxCell>
        <mxCell id="k0uKY-lTLWk4_8m04BFy-53" value="" style="edgeStyle=orthogonalEdgeStyle;rounded=0;orthogonalLoop=1;jettySize=auto;html=1;" parent="WIyWlLk6GJQsqaUBKTNV-1" source="k0uKY-lTLWk4_8m04BFy-44" target="k0uKY-lTLWk4_8m04BFy-52" edge="1">
          <mxGeometry relative="1" as="geometry" />
        </mxCell>
        <mxCell id="k0uKY-lTLWk4_8m04BFy-44" value="认证成功？" style="rhombus;whiteSpace=wrap;html=1;" parent="WIyWlLk6GJQsqaUBKTNV-1" vertex="1">
          <mxGeometry x="180" y="480" width="80" height="80" as="geometry" />
        </mxCell>
        <mxCell id="k0uKY-lTLWk4_8m04BFy-48" value="no" style="text;html=1;align=center;verticalAlign=middle;resizable=0;points=[];autosize=1;" parent="WIyWlLk6GJQsqaUBKTNV-1" vertex="1">
          <mxGeometry x="225" y="440" width="30" height="20" as="geometry" />
        </mxCell>
        <mxCell id="k0uKY-lTLWk4_8m04BFy-49" value="yes&lt;br&gt;" style="text;html=1;align=center;verticalAlign=middle;resizable=0;points=[];autosize=1;" parent="WIyWlLk6GJQsqaUBKTNV-1" vertex="1">
          <mxGeometry x="225" y="565" width="30" height="20" as="geometry" />
        </mxCell>
        <mxCell id="k0uKY-lTLWk4_8m04BFy-52" value="提示将自动跳转到IOT数据认证界面进行数据认证。IOT数据认证页面显示数据中台，数据空白，可以自行填充，&lt;br&gt;本地部署：显示初始认证按钮。&lt;br&gt;公网部署：显示去注册按钮。" style="whiteSpace=wrap;html=1;" parent="WIyWlLk6GJQsqaUBKTNV-1" vertex="1">
          <mxGeometry x="340" y="470" width="180" height="100" as="geometry" />
        </mxCell>
        <mxCell id="k0uKY-lTLWk4_8m04BFy-54" value="no" style="text;html=1;align=center;verticalAlign=middle;resizable=0;points=[];autosize=1;" parent="WIyWlLk6GJQsqaUBKTNV-1" vertex="1">
          <mxGeometry x="280" y="500" width="30" height="20" as="geometry" />
        </mxCell>
        <mxCell id="k0uKY-lTLWk4_8m04BFy-57" value="no" style="text;html=1;align=center;verticalAlign=middle;resizable=0;points=[];autosize=1;" parent="WIyWlLk6GJQsqaUBKTNV-1" vertex="1">
          <mxGeometry x="45" y="315" width="30" height="20" as="geometry" />
        </mxCell>
        <mxCell id="k0uKY-lTLWk4_8m04BFy-128" value="" style="endArrow=classic;html=1;entryX=0.5;entryY=0;entryDx=0;entryDy=0;exitX=0.5;exitY=1;exitDx=0;exitDy=0;" parent="WIyWlLk6GJQsqaUBKTNV-1" source="WIyWlLk6GJQsqaUBKTNV-3" target="WIyWlLk6GJQsqaUBKTNV-6" edge="1">
          <mxGeometry width="50" height="50" relative="1" as="geometry">
            <mxPoint x="190" y="110" as="sourcePoint" />
            <mxPoint x="240" y="60" as="targetPoint" />
          </mxGeometry>
        </mxCell>
        <mxCell id="7Q2n8eVBiBNBiA9YKsd2-6" value="yes&lt;br&gt;" style="text;html=1;align=center;verticalAlign=middle;resizable=0;points=[];autosize=1;" vertex="1" parent="WIyWlLk6GJQsqaUBKTNV-1">
          <mxGeometry x="1000" y="335" width="30" height="20" as="geometry" />
        </mxCell>
        <mxCell id="7Q2n8eVBiBNBiA9YKsd2-26" value="" style="edgeStyle=orthogonalEdgeStyle;rounded=0;orthogonalLoop=1;jettySize=auto;html=1;entryX=0.5;entryY=0;entryDx=0;entryDy=0;" edge="1" parent="WIyWlLk6GJQsqaUBKTNV-1" source="7Q2n8eVBiBNBiA9YKsd2-1" target="7Q2n8eVBiBNBiA9YKsd2-24">
          <mxGeometry relative="1" as="geometry">
            <mxPoint x="850" y="140" as="targetPoint" />
          </mxGeometry>
        </mxCell>
        <mxCell id="7Q2n8eVBiBNBiA9YKsd2-1" value="点击IOT数据认证模块" style="rounded=1;whiteSpace=wrap;html=1;fontSize=12;glass=0;strokeWidth=1;shadow=0;" vertex="1" parent="WIyWlLk6GJQsqaUBKTNV-1">
          <mxGeometry x="790" y="20" width="120" height="40" as="geometry" />
        </mxCell>
        <mxCell id="7Q2n8eVBiBNBiA9YKsd2-18" value="" style="edgeStyle=orthogonalEdgeStyle;rounded=0;orthogonalLoop=1;jettySize=auto;html=1;exitX=0.5;exitY=1;exitDx=0;exitDy=0;" edge="1" parent="WIyWlLk6GJQsqaUBKTNV-1" source="7Q2n8eVBiBNBiA9YKsd2-24" target="7Q2n8eVBiBNBiA9YKsd2-19">
          <mxGeometry x="360" y="25" as="geometry">
            <mxPoint x="630" y="310" as="targetPoint" />
            <Array as="points">
              <mxPoint x="850" y="240" />
              <mxPoint x="850" y="240" />
            </Array>
          </mxGeometry>
        </mxCell>
        <mxCell id="7Q2n8eVBiBNBiA9YKsd2-29" value="" style="edgeStyle=orthogonalEdgeStyle;rounded=0;orthogonalLoop=1;jettySize=auto;html=1;" edge="1" parent="WIyWlLk6GJQsqaUBKTNV-1" source="7Q2n8eVBiBNBiA9YKsd2-19" target="7Q2n8eVBiBNBiA9YKsd2-28">
          <mxGeometry relative="1" as="geometry" />
        </mxCell>
        <mxCell id="7Q2n8eVBiBNBiA9YKsd2-19" value="第一次点击且之前&lt;br&gt;没有配置成功过hekr账号？" style="rhombus;whiteSpace=wrap;html=1;" vertex="1" parent="WIyWlLk6GJQsqaUBKTNV-1">
          <mxGeometry x="780" y="300" width="140" height="130" as="geometry" />
        </mxCell>
        <mxCell id="7Q2n8eVBiBNBiA9YKsd2-20" value="" style="edgeStyle=orthogonalEdgeStyle;rounded=0;orthogonalLoop=1;jettySize=auto;html=1;" edge="1" parent="WIyWlLk6GJQsqaUBKTNV-1">
          <mxGeometry relative="1" as="geometry">
            <mxPoint x="630" y="180.0000000000001" as="targetPoint" />
          </mxGeometry>
        </mxCell>
        <mxCell id="7Q2n8eVBiBNBiA9YKsd2-22" value="后台注册hekr账号并自动配置到IOT数据认证中，显示数据中台页面，用户可以点击修改。&lt;br&gt;显示初始认证按钮。&lt;br&gt;显示去管理IOT数据按钮。" style="whiteSpace=wrap;html=1;" vertex="1" parent="WIyWlLk6GJQsqaUBKTNV-1">
          <mxGeometry x="1110" y="310" width="200" height="110" as="geometry" />
        </mxCell>
        <mxCell id="7Q2n8eVBiBNBiA9YKsd2-43" value="" style="edgeStyle=orthogonalEdgeStyle;rounded=0;orthogonalLoop=1;jettySize=auto;html=1;" edge="1" parent="WIyWlLk6GJQsqaUBKTNV-1" source="7Q2n8eVBiBNBiA9YKsd2-24">
          <mxGeometry relative="1" as="geometry">
            <mxPoint x="990" y="175" as="targetPoint" />
          </mxGeometry>
        </mxCell>
        <mxCell id="7Q2n8eVBiBNBiA9YKsd2-24" value="本地部署？" style="rhombus;whiteSpace=wrap;html=1;" vertex="1" parent="WIyWlLk6GJQsqaUBKTNV-1">
          <mxGeometry x="790" y="140" width="120" height="70" as="geometry" />
        </mxCell>
        <mxCell id="7Q2n8eVBiBNBiA9YKsd2-27" value="yes&lt;br&gt;" style="text;html=1;align=center;verticalAlign=middle;resizable=0;points=[];autosize=1;" vertex="1" parent="WIyWlLk6GJQsqaUBKTNV-1">
          <mxGeometry x="855" y="240" width="30" height="20" as="geometry" />
        </mxCell>
        <mxCell id="7Q2n8eVBiBNBiA9YKsd2-31" value="" style="edgeStyle=orthogonalEdgeStyle;rounded=0;orthogonalLoop=1;jettySize=auto;html=1;" edge="1" parent="WIyWlLk6GJQsqaUBKTNV-1" source="7Q2n8eVBiBNBiA9YKsd2-28">
          <mxGeometry relative="1" as="geometry">
            <mxPoint x="850" y="630" as="targetPoint" />
          </mxGeometry>
        </mxCell>
        <mxCell id="7Q2n8eVBiBNBiA9YKsd2-28" value="认证成功？" style="rhombus;whiteSpace=wrap;html=1;" vertex="1" parent="WIyWlLk6GJQsqaUBKTNV-1">
          <mxGeometry x="780" y="460" width="140" height="90" as="geometry" />
        </mxCell>
        <mxCell id="7Q2n8eVBiBNBiA9YKsd2-32" value="yes" style="text;html=1;align=center;verticalAlign=middle;resizable=0;points=[];autosize=1;" vertex="1" parent="WIyWlLk6GJQsqaUBKTNV-1">
          <mxGeometry x="855" y="570" width="30" height="20" as="geometry" />
        </mxCell>
        <mxCell id="7Q2n8eVBiBNBiA9YKsd2-33" value="no" style="text;html=1;align=center;verticalAlign=middle;resizable=0;points=[];autosize=1;" vertex="1" parent="WIyWlLk6GJQsqaUBKTNV-1">
          <mxGeometry x="955" y="480" width="30" height="20" as="geometry" />
        </mxCell>
        <mxCell id="7Q2n8eVBiBNBiA9YKsd2-35" value="" style="endArrow=classic;html=1;entryX=0;entryY=0.5;entryDx=0;entryDy=0;exitX=1;exitY=0.5;exitDx=0;exitDy=0;" edge="1" parent="WIyWlLk6GJQsqaUBKTNV-1" source="7Q2n8eVBiBNBiA9YKsd2-19" target="7Q2n8eVBiBNBiA9YKsd2-22">
          <mxGeometry width="50" height="50" relative="1" as="geometry">
            <mxPoint x="870" y="380" as="sourcePoint" />
            <mxPoint x="920" y="330" as="targetPoint" />
          </mxGeometry>
        </mxCell>
        <mxCell id="7Q2n8eVBiBNBiA9YKsd2-41" value="no" style="text;html=1;align=center;verticalAlign=middle;resizable=0;points=[];autosize=1;" vertex="1" parent="WIyWlLk6GJQsqaUBKTNV-1">
          <mxGeometry x="855" y="430" width="30" height="20" as="geometry" />
        </mxCell>
        <mxCell id="7Q2n8eVBiBNBiA9YKsd2-45" value="no" style="text;html=1;align=center;verticalAlign=middle;resizable=0;points=[];autosize=1;" vertex="1" parent="WIyWlLk6GJQsqaUBKTNV-1">
          <mxGeometry x="940" y="155" width="30" height="20" as="geometry" />
        </mxCell>
        <mxCell id="7Q2n8eVBiBNBiA9YKsd2-48" value="" style="edgeStyle=orthogonalEdgeStyle;rounded=0;orthogonalLoop=1;jettySize=auto;html=1;" edge="1" parent="WIyWlLk6GJQsqaUBKTNV-1" source="7Q2n8eVBiBNBiA9YKsd2-46">
          <mxGeometry relative="1" as="geometry">
            <mxPoint x="1150" y="175" as="targetPoint" />
          </mxGeometry>
        </mxCell>
        <mxCell id="7Q2n8eVBiBNBiA9YKsd2-52" style="edgeStyle=orthogonalEdgeStyle;rounded=0;orthogonalLoop=1;jettySize=auto;html=1;exitX=0.5;exitY=0;exitDx=0;exitDy=0;entryX=0;entryY=0.25;entryDx=0;entryDy=0;" edge="1" parent="WIyWlLk6GJQsqaUBKTNV-1" source="7Q2n8eVBiBNBiA9YKsd2-46" target="7Q2n8eVBiBNBiA9YKsd2-51">
          <mxGeometry relative="1" as="geometry">
            <mxPoint x="1030" y="50" as="targetPoint" />
          </mxGeometry>
        </mxCell>
        <mxCell id="7Q2n8eVBiBNBiA9YKsd2-46" value="认证成功？" style="rhombus;whiteSpace=wrap;html=1;" vertex="1" parent="WIyWlLk6GJQsqaUBKTNV-1">
          <mxGeometry x="990" y="135" width="80" height="80" as="geometry" />
        </mxCell>
        <mxCell id="7Q2n8eVBiBNBiA9YKsd2-49" value="自动填充认证成功的账号数据.&lt;br&gt;显示IOT设备管理按钮" style="rounded=0;whiteSpace=wrap;html=1;" vertex="1" parent="WIyWlLk6GJQsqaUBKTNV-1">
          <mxGeometry x="1160" y="145" width="120" height="60" as="geometry" />
        </mxCell>
        <mxCell id="7Q2n8eVBiBNBiA9YKsd2-50" value="yes" style="text;html=1;align=center;verticalAlign=middle;resizable=0;points=[];autosize=1;" vertex="1" parent="WIyWlLk6GJQsqaUBKTNV-1">
          <mxGeometry x="1085" y="150" width="30" height="20" as="geometry" />
        </mxCell>
        <mxCell id="7Q2n8eVBiBNBiA9YKsd2-51" value="点击数据中台显示空白表单。&lt;br&gt;显示去注册按钮。" style="rounded=0;whiteSpace=wrap;html=1;" vertex="1" parent="WIyWlLk6GJQsqaUBKTNV-1">
          <mxGeometry x="1160" y="25" width="120" height="60" as="geometry" />
        </mxCell>
        <mxCell id="7Q2n8eVBiBNBiA9YKsd2-53" value="no" style="text;html=1;align=center;verticalAlign=middle;resizable=0;points=[];autosize=1;" vertex="1" parent="WIyWlLk6GJQsqaUBKTNV-1">
          <mxGeometry x="1075" y="10" width="30" height="20" as="geometry" />
        </mxCell>
        <mxCell id="7Q2n8eVBiBNBiA9YKsd2-54" value="在本地部署，目前认证没有成功，账号没配置好。点击进IOT认证界面的显示？？？？" style="text;html=1;align=center;verticalAlign=middle;resizable=0;points=[];autosize=1;" vertex="1" parent="WIyWlLk6GJQsqaUBKTNV-1">
          <mxGeometry x="925" y="550" width="470" height="20" as="geometry" />
        </mxCell>
      </root>
    </mxGraphModel>
  </diagram>
</mxfile>
